<svg width="512" height="512" viewBox="0 0 512 512" fill="none" xmlns="http://www.w3.org/2000/svg">
<g clip-path="url(#clip0_940_28)">
<path d="M365.714 0H146.286C65.4943 0 0 65.4943 0 146.286V365.714C0 446.506 65.4943 512 146.286 512H365.714C446.506 512 512 446.506 512 365.714V146.286C512 65.4943 446.506 0 365.714 0Z" fill="#7B808A"/>
<path d="M255.975 407C251.105 407 246.235 405.742 241.894 403.25L135.08 341.795C126.4 336.786 121 327.475 121 317.459V194.547C121 184.531 126.4 175.22 135.08 170.212L241.894 108.756C250.575 103.748 261.375 103.748 270.08 108.756L376.894 170.212C385.6 175.22 391 184.531 391 194.547V240.702C391 243.848 389.309 246.767 386.584 248.327L351.434 268.536L386.584 288.744C389.309 290.33 391 293.224 391 296.37V317.459C391 327.475 385.6 336.786 376.894 341.795L270.08 403.25C265.74 405.742 260.87 407 256 407H255.975ZM255.975 122.623C254.158 122.623 252.341 123.101 250.701 124.032L143.887 185.488C140.657 187.35 138.638 190.823 138.638 194.547V317.459C138.638 321.183 140.657 324.656 143.887 326.519L250.701 387.974C253.956 389.837 257.968 389.837 261.223 387.974L368.037 326.519C371.293 324.656 373.286 321.183 373.286 317.459V301.453L343.99 284.617V290.43C343.99 300.447 338.59 309.758 329.884 314.766L270.03 349.219C261.35 354.227 250.55 354.227 241.844 349.219L181.99 314.766C173.309 309.758 167.909 300.447 167.909 290.43V221.551C167.909 211.535 173.309 202.223 181.99 197.215L241.844 162.763C250.524 157.755 261.324 157.755 270.03 162.763C270.106 162.813 270.207 162.863 270.282 162.914L337.303 204.513C341.441 207.08 342.703 212.516 340.129 216.643C337.555 220.771 332.105 222.029 327.966 219.462L261.072 177.938C257.842 176.126 253.855 176.151 250.65 177.988L190.796 212.441C187.566 214.303 185.548 217.776 185.548 221.5V290.38C185.548 294.105 187.566 297.578 190.796 299.44L250.65 333.892C253.906 335.755 257.918 335.755 261.173 333.892L321.027 299.44C324.282 297.578 326.276 294.105 326.276 290.38V269.316C326.276 269.064 326.276 268.788 326.301 268.536C325.948 265.189 327.563 261.791 330.666 260.005L373.21 235.543V194.472C373.21 190.747 371.192 187.274 367.962 185.412L261.148 123.956C259.533 123.025 257.716 122.547 255.899 122.547L255.975 122.623Z" fill="white"/>
</g>
<defs>
<clipPath id="clip0_940_28">
<rect width="512" height="512" fill="white"/>
</clipPath>
</defs>
</svg>
