<svg width="167" height="180" viewBox="0 0 167 180" fill="none" xmlns="http://www.w3.org/2000/svg">
<path d="M83.4998 150C81.5698 150 79.6398 149.5 77.9198 148.51L35.5898 124.09C32.1498 122.1 30.0098 118.4 30.0098 114.42V65.5796C30.0098 61.5996 32.1498 57.8996 35.5898 55.9096L77.9198 31.4896C81.3598 29.4996 85.6398 29.4996 89.0898 31.4896L131.42 55.9096C134.87 57.8996 137.01 61.5996 137.01 65.5796V83.9196C137.01 85.1696 136.34 86.3296 135.26 86.9496L121.33 94.9796L135.26 103.01C136.34 103.64 137.01 104.79 137.01 106.04V114.42C137.01 118.4 134.87 122.1 131.42 124.09L89.0898 148.51C87.3698 149.5 85.4398 150 83.5098 150H83.4998ZM83.4998 36.9996C82.7798 36.9996 82.0598 37.1896 81.4098 37.5596L39.0798 61.9796C37.7998 62.7196 36.9998 64.0996 36.9998 65.5796V114.42C36.9998 115.9 37.7998 117.28 39.0798 118.02L81.4098 142.44C82.6998 143.18 84.2898 143.18 85.5798 142.44L127.91 118.02C129.2 117.28 129.99 115.9 129.99 114.42V108.06L118.38 101.37V103.68C118.38 107.66 116.24 111.36 112.79 113.35L89.0698 127.04C85.6298 129.03 81.3498 129.03 77.8998 127.04L54.1798 113.35C50.7398 111.36 48.5998 107.66 48.5998 103.68V76.3096C48.5998 72.3296 50.7398 68.6296 54.1798 66.6396L77.8998 52.9496C81.3398 50.9596 85.6198 50.9596 89.0698 52.9496C89.0998 52.9696 89.1398 52.9896 89.1698 53.0096L115.73 69.5396C117.37 70.5596 117.87 72.7196 116.85 74.3596C115.83 75.9996 113.67 76.4996 112.03 75.4796L85.5198 58.9796C84.2398 58.2596 82.6598 58.2696 81.3898 58.9996L57.6698 72.6896C56.3898 73.4296 55.5898 74.8096 55.5898 76.2896V103.66C55.5898 105.14 56.3898 106.52 57.6698 107.26L81.3898 120.95C82.6798 121.69 84.2698 121.69 85.5598 120.95L109.28 107.26C110.57 106.52 111.36 105.14 111.36 103.66V95.2896C111.36 95.1896 111.36 95.0796 111.37 94.9796C111.23 93.6496 111.87 92.2996 113.1 91.5896L129.96 81.8696V65.5496C129.96 64.0696 129.16 62.6896 127.88 61.9496L85.5498 37.5296C84.9098 37.1596 84.1898 36.9696 83.4698 36.9696L83.4998 36.9996Z" fill="white"/>
<path d="M102.12 140.45C101.53 140.45 100.93 140.3 100.38 139.98L71.4799 123.32C69.8099 122.35 69.2299 120.21 70.1999 118.54C71.1599 116.87 73.2999 116.29 74.9799 117.26L103.88 133.92C105.55 134.89 106.13 137.03 105.16 138.7C104.51 139.82 103.33 140.45 102.12 140.45Z" fill="white"/>
<path d="M53.12 76.0293C52.53 76.0293 51.93 75.8793 51.38 75.5593L32.77 64.8293C31.1 63.8593 30.52 61.7193 31.49 60.0493C32.46 58.3793 34.6 57.7993 36.27 58.7693L54.88 69.4993C56.55 70.4693 57.13 72.6093 56.16 74.2793C55.51 75.3993 54.33 76.0293 53.12 76.0293Z" fill="white"/>
<path d="M79.4699 59.6093C78.2599 59.6093 77.0799 58.9793 76.4299 57.8593C75.4599 56.1893 76.0399 54.0493 77.7099 53.0793L100.36 40.0193C102.03 39.0493 104.17 39.6293 105.14 41.2993C106.11 42.9693 105.53 45.1093 103.86 46.0793L81.2099 59.1393C80.6599 59.4593 80.0599 59.6093 79.4699 59.6093Z" fill="white"/>
<path d="M113.9 76.03C112.69 76.03 111.51 75.4 110.86 74.28C109.89 72.61 110.47 70.47 112.14 69.5L130.74 58.78C132.41 57.81 134.55 58.39 135.52 60.06C136.49 61.73 135.91 63.87 134.24 64.84L115.64 75.56C115.09 75.88 114.49 76.03 113.9 76.03Z" fill="white"/>
</svg>
